<mxfile host="app.diagrams.net" modified="2023-09-12T19:43:36.680Z" agent="Mozilla/5.0 (Windows NT 10.0; Win64; x64) AppleWebKit/537.36 (KHTML, like Gecko) Chrome/116.0.0.0 Safari/537.36" etag="3cfBmze6AN4VTSCWOtuS" version="21.7.2" type="device">
  <diagram name="Página-1" id="eB_Upuw8UqvCU3spnnAe">
    <mxGraphModel dx="880" dy="1639" grid="1" gridSize="10" guides="1" tooltips="1" connect="1" arrows="1" fold="1" page="1" pageScale="1" pageWidth="827" pageHeight="1169" math="0" shadow="0">
      <root>
        <mxCell id="0" />
        <mxCell id="1" parent="0" />
        <mxCell id="pwK5B5v1usHXZLTPztnP-1" value="leitor existe&amp;nbsp;" style="rhombus;whiteSpace=wrap;html=1;fontColor=#000000;fillColor=#ffffc0;strokeColor=#ff0000;" vertex="1" parent="1">
          <mxGeometry x="240" y="100" width="100" height="70" as="geometry" />
        </mxCell>
        <mxCell id="pwK5B5v1usHXZLTPztnP-2" value="no" style="edgeStyle=orthogonalEdgeStyle;html=1;align=left;verticalAlign=bottom;endArrow=open;endSize=8;strokeColor=#ff0000;rounded=0;entryX=0.5;entryY=0;entryDx=0;entryDy=0;" edge="1" source="pwK5B5v1usHXZLTPztnP-1" parent="1" target="pwK5B5v1usHXZLTPztnP-19">
          <mxGeometry x="-0.75" y="-30" relative="1" as="geometry">
            <mxPoint x="320" y="220" as="targetPoint" />
            <mxPoint as="offset" />
          </mxGeometry>
        </mxCell>
        <mxCell id="pwK5B5v1usHXZLTPztnP-3" value="yes" style="edgeStyle=orthogonalEdgeStyle;html=1;align=left;verticalAlign=top;endArrow=open;endSize=8;strokeColor=#ff0000;rounded=0;" edge="1" source="pwK5B5v1usHXZLTPztnP-1" parent="1">
          <mxGeometry x="-1" relative="1" as="geometry">
            <mxPoint x="470" y="135" as="targetPoint" />
            <mxPoint x="460" y="135" as="sourcePoint" />
            <Array as="points">
              <mxPoint x="361" y="135" />
            </Array>
          </mxGeometry>
        </mxCell>
        <mxCell id="pwK5B5v1usHXZLTPztnP-10" value="" style="ellipse;html=1;shape=startState;fillColor=#000000;strokeColor=#ff0000;" vertex="1" parent="1">
          <mxGeometry x="135" y="-150" width="30" height="30" as="geometry" />
        </mxCell>
        <mxCell id="pwK5B5v1usHXZLTPztnP-11" value="" style="edgeStyle=orthogonalEdgeStyle;html=1;verticalAlign=bottom;endArrow=open;endSize=8;strokeColor=#ff0000;rounded=0;" edge="1" source="pwK5B5v1usHXZLTPztnP-10" parent="1" target="pwK5B5v1usHXZLTPztnP-12">
          <mxGeometry relative="1" as="geometry">
            <mxPoint x="270" as="targetPoint" />
          </mxGeometry>
        </mxCell>
        <mxCell id="pwK5B5v1usHXZLTPztnP-12" value="Selecionar área de empréstimo" style="rounded=1;whiteSpace=wrap;html=1;arcSize=40;fontColor=#000000;fillColor=#ffffc0;strokeColor=#ff0000;" vertex="1" parent="1">
          <mxGeometry x="230" y="-75" width="120" height="40" as="geometry" />
        </mxCell>
        <mxCell id="pwK5B5v1usHXZLTPztnP-13" value="" style="edgeStyle=orthogonalEdgeStyle;html=1;verticalAlign=bottom;endArrow=open;endSize=8;strokeColor=#ff0000;rounded=0;" edge="1" source="pwK5B5v1usHXZLTPztnP-12" parent="1">
          <mxGeometry relative="1" as="geometry">
            <mxPoint x="290" y="20" as="targetPoint" />
          </mxGeometry>
        </mxCell>
        <mxCell id="pwK5B5v1usHXZLTPztnP-14" value="Selecionar leitor e livro&amp;nbsp;" style="rounded=1;whiteSpace=wrap;html=1;arcSize=40;fontColor=#000000;fillColor=#ffffc0;strokeColor=#ff0000;" vertex="1" parent="1">
          <mxGeometry x="230" y="10" width="120" height="40" as="geometry" />
        </mxCell>
        <mxCell id="pwK5B5v1usHXZLTPztnP-15" value="" style="edgeStyle=orthogonalEdgeStyle;html=1;verticalAlign=bottom;endArrow=open;endSize=8;strokeColor=#ff0000;rounded=0;" edge="1" source="pwK5B5v1usHXZLTPztnP-14" parent="1">
          <mxGeometry relative="1" as="geometry">
            <mxPoint x="290" y="110" as="targetPoint" />
          </mxGeometry>
        </mxCell>
        <mxCell id="pwK5B5v1usHXZLTPztnP-18" style="edgeStyle=orthogonalEdgeStyle;rounded=0;orthogonalLoop=1;jettySize=auto;html=1;entryX=0;entryY=0.5;entryDx=0;entryDy=0;" edge="1" parent="1" source="pwK5B5v1usHXZLTPztnP-16" target="pwK5B5v1usHXZLTPztnP-14">
          <mxGeometry relative="1" as="geometry" />
        </mxCell>
        <mxCell id="pwK5B5v1usHXZLTPztnP-16" value="Registrar leitor&amp;nbsp;" style="rounded=1;whiteSpace=wrap;html=1;arcSize=40;fontColor=#000000;fillColor=#ffffc0;strokeColor=#ff0000;" vertex="1" parent="1">
          <mxGeometry x="30" y="50" width="120" height="40" as="geometry" />
        </mxCell>
        <mxCell id="pwK5B5v1usHXZLTPztnP-19" value="Registrar leitor?" style="rhombus;whiteSpace=wrap;html=1;fontColor=#000000;fillColor=#ffffc0;strokeColor=#ff0000;" vertex="1" parent="1">
          <mxGeometry x="235" y="250" width="110" height="80" as="geometry" />
        </mxCell>
        <mxCell id="pwK5B5v1usHXZLTPztnP-20" value="no" style="edgeStyle=orthogonalEdgeStyle;html=1;align=left;verticalAlign=bottom;endArrow=open;endSize=8;strokeColor=#ff0000;rounded=0;entryX=0.567;entryY=0.8;entryDx=0;entryDy=0;entryPerimeter=0;" edge="1" source="pwK5B5v1usHXZLTPztnP-19" parent="1" target="pwK5B5v1usHXZLTPztnP-27">
          <mxGeometry x="-1" relative="1" as="geometry">
            <mxPoint x="430" y="260" as="targetPoint" />
          </mxGeometry>
        </mxCell>
        <mxCell id="pwK5B5v1usHXZLTPztnP-21" value="yes" style="edgeStyle=orthogonalEdgeStyle;html=1;align=left;verticalAlign=top;endArrow=open;endSize=8;strokeColor=#ff0000;rounded=0;entryX=0.5;entryY=1;entryDx=0;entryDy=0;" edge="1" source="pwK5B5v1usHXZLTPztnP-19" parent="1" target="pwK5B5v1usHXZLTPztnP-16">
          <mxGeometry x="-0.971" y="-30" relative="1" as="geometry">
            <mxPoint x="80" y="160" as="targetPoint" />
            <mxPoint as="offset" />
          </mxGeometry>
        </mxCell>
        <mxCell id="pwK5B5v1usHXZLTPztnP-22" value="Livro existe ?" style="rhombus;whiteSpace=wrap;html=1;fontColor=#000000;fillColor=#ffffc0;strokeColor=#ff0000;" vertex="1" parent="1">
          <mxGeometry x="470" y="105" width="100" height="60" as="geometry" />
        </mxCell>
        <mxCell id="pwK5B5v1usHXZLTPztnP-23" value="no" style="edgeStyle=orthogonalEdgeStyle;html=1;align=left;verticalAlign=bottom;endArrow=open;endSize=8;strokeColor=#ff0000;rounded=0;entryX=1;entryY=0.5;entryDx=0;entryDy=0;" edge="1" source="pwK5B5v1usHXZLTPztnP-22" parent="1" target="pwK5B5v1usHXZLTPztnP-14">
          <mxGeometry x="-0.9592" y="-10" relative="1" as="geometry">
            <mxPoint x="640" y="140" as="targetPoint" />
            <Array as="points">
              <mxPoint x="520" y="30" />
            </Array>
            <mxPoint as="offset" />
          </mxGeometry>
        </mxCell>
        <mxCell id="pwK5B5v1usHXZLTPztnP-24" value="yes" style="edgeStyle=orthogonalEdgeStyle;html=1;align=left;verticalAlign=top;endArrow=open;endSize=8;strokeColor=#ff0000;rounded=0;" edge="1" source="pwK5B5v1usHXZLTPztnP-22" parent="1" target="pwK5B5v1usHXZLTPztnP-25">
          <mxGeometry x="-1" relative="1" as="geometry">
            <mxPoint x="500" y="220" as="targetPoint" />
          </mxGeometry>
        </mxCell>
        <mxCell id="pwK5B5v1usHXZLTPztnP-29" style="edgeStyle=orthogonalEdgeStyle;rounded=0;orthogonalLoop=1;jettySize=auto;html=1;" edge="1" parent="1" source="pwK5B5v1usHXZLTPztnP-25" target="pwK5B5v1usHXZLTPztnP-27">
          <mxGeometry relative="1" as="geometry" />
        </mxCell>
        <mxCell id="pwK5B5v1usHXZLTPztnP-25" value="Registrar empréstimo" style="rounded=1;whiteSpace=wrap;html=1;arcSize=40;fontColor=#000000;fillColor=#ffffc0;strokeColor=#ff0000;" vertex="1" parent="1">
          <mxGeometry x="580" y="-30" width="130" height="35" as="geometry" />
        </mxCell>
        <mxCell id="pwK5B5v1usHXZLTPztnP-27" value="" style="ellipse;html=1;shape=endState;fillColor=#000000;strokeColor=#ff0000;" vertex="1" parent="1">
          <mxGeometry x="710" y="-140" width="30" height="30" as="geometry" />
        </mxCell>
      </root>
    </mxGraphModel>
  </diagram>
</mxfile>
